<svg width="104" height="91" viewBox="0 0 104 91" fill="none" xmlns="http://www.w3.org/2000/svg">
<g id="logo">
<g id="&#240;&#159;&#166;&#134; icon &#34;donuts&#34;">
<g id="Group">
<g id="Group_2">
<path id="Vector" fill-rule="evenodd" clip-rule="evenodd" d="M39.8481 56.9995C35.8884 62.2362 28.9938 63.6621 21.1246 62.8699C16.8849 62.4423 13.3428 59.8737 12.1125 56.3349C11.1477 53.0724 10.5601 49.6569 10.5601 46.1237C10.5601 26.1738 29.2625 9.97583 52.297 9.97583C61.7931 9.97583 70.551 12.7281 77.567 17.3619C84.1104 21.7447 86.1744 29.5191 82.498 35.9364C81.7 37.5039 81.2726 39.5453 81.1981 42.2008C80.9472 51.0786 77.0506 54.0356 70.088 48.1049C70.2564 47.2454 70.3438 46.3621 70.3438 45.4606C70.3438 36.7804 62.2059 29.7323 52.1837 29.7323C42.1614 29.7323 34.0235 36.7804 34.0235 45.4606C34.0235 50.0187 36.2672 54.1253 39.8481 56.9995Z" stroke="#F16178" stroke-width="2" stroke-miterlimit="2" stroke-linecap="round" stroke-linejoin="round"/>
<path id="Vector_2" d="M68.1033 26.0364L70.4992 28.469" stroke="#F16178" stroke-width="2" stroke-miterlimit="2" stroke-linecap="round" stroke-linejoin="round"/>
<path id="Vector_3" d="M83.9048 26.0364C88.3954 31.524 91.0358 38.2273 91.0358 45.4605C91.0358 64.0322 73.6268 79.11 52.1836 79.11C37.8358 79.11 25.2947 72.3604 18.5652 62.3287" stroke="#F16178" stroke-width="2" stroke-miterlimit="2" stroke-linecap="round" stroke-linejoin="round"/>
<path id="Vector_4" d="M18.5652 55.7153V52.5732" stroke="#F16178" stroke-width="2" stroke-miterlimit="2" stroke-linecap="round" stroke-linejoin="round"/>
<path id="Vector_5" d="M45.2503 20.3286L42.1162 20.6469" stroke="#F16178" stroke-width="2" stroke-miterlimit="2" stroke-linecap="round" stroke-linejoin="round"/>
<path id="Vector_6" d="M52.1836 61.1888C62.2131 61.1888 70.3437 54.147 70.3437 45.4605C70.3437 36.774 62.2131 29.7322 52.1836 29.7322C42.154 29.7322 34.0234 36.774 34.0234 45.4605C34.0234 54.147 42.154 61.1888 52.1836 61.1888Z" stroke="#F16178" stroke-width="2" stroke-miterlimit="2" stroke-linecap="round" stroke-linejoin="round"/>
</g>
</g>
</g>
</g>
</svg>
